<svg xmlns="http://www.w3.org/2000/svg" width="24" height="24" viewBox="0 0 1120 1280" fill="white">
  <g transform="translate(0,1280) scale(1,-1)">
    <path d="M280 1121 l-275 -148 0 -338 0 -338 279 -148 280 -148 95 52 c53 28 177 95 276 148 l180 96 2 339 3 339 -268 142 c-147 78 -274 144 -282 147 -8 3 -139 -62 -290 -143z m526 -11 c81 -44 158 -83 171 -86 63 -16 24 -24 -104 -22 l-138 3 -48 93 c-58 111 -63 111 119 12z m-546 -100 c0 -66 0 -66 -78 -26 -34 18 -63 5 -55 -24 6 -24 0 -25 -33 -4 l-25 17 88 48 c109 60 103 61 103 -11z m315 1 c3 -6 64 -40 135 -77 l130 -68 -137 -72 -137 -72 -138 69 c-123 61 -162 89 -127 89 24 0 220 103 232 121 13 20 32 25 42 10z m505 -243 l0 -63 -201 -103 -200 -104 3 64 3 63 195 102 c107 56 196 103 198 103 1 0 2 -28 2 -62z m-710 -117 c27 -39 30 -91 5 -91 -8 0 -67 26 -130 57 l-115 58 0 58 0 58 111 -57 c60 -32 119 -69 129 -83z m170 -317 c0 -166 -11 -173 -71 -42 -47 106 -47 101 -3 117 19 7 40 23 46 37 22 47 28 22 28 -112z m-281 80 c16 -35 9 -39 -29 -19 -30 16 -31 17 -13 30 25 20 28 19 42 -11z m616 4 c37 -17 38 -16 -135 -106 l-160 -83 0 30 c0 28 8 34 133 100 72 39 133 71 134 71 1 0 14 -5 28 -12z"/>
  </g>
</svg>
